<svg width="107" height="107" viewBox="0 0 107 107" fill="none" xmlns="http://www.w3.org/2000/svg">
    <g clip-path="url(#clip0)">
        <path d="M86.9181 30.5314H80.8779V10.5554H86.9181C88.7369 10.5554 90.2121 12.0306 90.2121 13.8502V27.2375C90.2121 29.0563 88.7369 30.5314 86.9181 30.5314Z" fill="#273C47"/>
        <path d="M18.598 23.9305H24.4904V10.5554H18.598C16.7784 10.5554 15.3032 12.0306 15.3032 13.8502V20.6365C15.3032 22.4553 16.7784 23.9305 18.598 23.9305Z" fill="#273C47"/>
        <path d="M18.598 41.0043H24.5614V27.6293H18.598C16.7784 27.6293 15.3032 29.1044 15.3032 30.924V37.7103C15.3032 39.5292 16.7784 41.0043 18.598 41.0043Z" fill="#273C47"/>
        <path d="M80.7668 -0.208984H24.7491C20.8804 -0.208984 17.7432 2.92742 17.7432 6.7969V99.7853C17.7432 103.654 20.8804 106.791 24.7491 106.791H80.7668C84.6363 106.791 87.7727 103.654 87.7727 99.7853V6.7969C87.7727 2.92742 84.6363 -0.208984 80.7668 -0.208984Z" fill="#405968"/>
        <path d="M30.1557 106.791H24.7491C20.8796 106.791 17.7432 103.656 17.7432 99.7862V6.79609C17.7432 2.9266 20.8796 -0.208984 24.7491 -0.208984H30.1557C26.2862 -0.208984 23.1506 2.9266 23.1506 6.79609V99.7862C23.1506 103.656 26.2862 106.791 30.1557 106.791Z" fill="#273C47"/>
        <path d="M20.3154 10.5562H85.1987V91.857H20.3154V10.5562Z" fill="#FFF6E3"/>
        <path d="M20.3154 10.5562H23.1498V91.857H20.3154V10.5562Z" fill="#DDD3C3"/>
        <path d="M82.3645 10.5562H85.1989V91.857H82.3645V10.5562Z" fill="white"/>
        <path d="M58.1645 6.98466H47.3512C46.4467 6.98466 45.7136 6.25158 45.7136 5.34706C45.7136 4.44255 46.4467 3.70947 47.3512 3.70947H58.1645C59.0691 3.70947 59.803 4.44255 59.803 5.34706C59.803 6.25158 59.0691 6.98466 58.1645 6.98466Z" fill="#273C47"/>
        <path d="M58.1645 100.515H47.3512C46.4467 100.515 45.7136 99.7821 45.7136 98.8776C45.7136 97.9731 46.4467 97.24 47.3512 97.24H58.1645C59.0691 97.24 59.803 97.9731 59.803 98.8776C59.803 99.7821 59.0691 100.515 58.1645 100.515Z" fill="#273C47"/>
        <path d="M95.11 45.1343H67.0506C62.4921 45.1343 58.7957 48.8299 58.7957 53.3892V67.6638C58.7957 72.2231 62.4913 75.9187 67.0506 75.9187H72.7299L71.0343 84.1957L87.056 75.9187H95.1108C99.6693 75.9187 103.365 72.2231 103.365 67.6638V53.3892C103.365 48.8299 99.6693 45.1343 95.11 45.1343Z" fill="#6ADBBD"/>
        <path d="M12.2256 18.1H40.2851C44.8436 18.1 48.54 21.7956 48.54 26.3549V40.6303C48.54 45.1888 44.8436 48.8844 40.2851 48.8844H34.6058L36.3013 57.1622L20.2797 48.8844H12.2256C7.66631 48.8844 3.9707 45.1888 3.9707 40.6303V26.3549C3.9707 21.7956 7.66631 18.1 12.2256 18.1Z" fill="#EF5E72"/>
        <path d="M72.6205 60.4976C72.6205 62.3067 71.1544 63.7728 69.3462 63.7728C67.5379 63.7728 66.0718 62.3067 66.0718 60.4976C66.0718 58.6894 67.5379 57.2233 69.3462 57.2233C71.1544 57.2233 72.6205 58.6894 72.6205 60.4976Z" fill="#273C47"/>
        <path d="M96.0896 60.4976C96.0896 62.3067 94.6234 63.7728 92.8144 63.7728C91.0062 63.7728 89.54 62.3067 89.54 60.4976C89.54 58.6894 91.0062 57.2233 92.8144 57.2233C94.6234 57.2233 96.0896 58.6894 96.0896 60.4976Z" fill="#273C47"/>
        <path d="M84.3555 60.4976C84.3555 62.3067 82.8893 63.7728 81.0803 63.7728C79.2721 63.7728 77.8059 62.3067 77.8059 60.4976C77.8059 58.6894 79.2721 57.2233 81.0803 57.2233C82.8893 57.2233 84.3555 58.6894 84.3555 60.4976Z" fill="#273C47"/>
        <path d="M17.7954 33.8203C17.7954 35.6286 16.3292 37.0947 14.521 37.0947C12.712 37.0947 11.2458 35.6286 11.2458 33.8203C11.2458 32.0113 12.712 30.5452 14.521 30.5452C16.3292 30.5452 17.7954 32.0113 17.7954 33.8203Z" fill="#273C47"/>
        <path d="M41.2638 33.8203C41.2638 35.6286 39.7977 37.0947 37.9895 37.0947C36.1804 37.0947 34.7151 35.6286 34.7151 33.8203C34.7151 32.0113 36.1804 30.5452 37.9895 30.5452C39.7977 30.5452 41.2638 32.0113 41.2638 33.8203Z" fill="#273C47"/>
        <path d="M29.5295 33.8203C29.5295 35.6286 28.0634 37.0947 26.2552 37.0947C24.4461 37.0947 22.98 35.6286 22.98 33.8203C22.98 32.0113 24.4461 30.5452 26.2552 30.5452C28.0634 30.5452 29.5295 32.0113 29.5295 33.8203Z" fill="#273C47"/>
    </g>
    <defs>
        <clipPath id="clip0">
            <rect width="107" height="107" fill="white"/>
        </clipPath>
    </defs>
</svg>
