<svg width="158" height="45" viewBox="0 0 158 45" fill="none" xmlns="http://www.w3.org/2000/svg">
    <path d="M152.035 0.00390625H5.84751C2.61802 0.00390625 0 2.48279 0 5.54064V38.7611C0 41.8189 2.61802 44.2978 5.84751 44.2978H152.035C155.265 44.2978 157.883 41.8189 157.883 38.7611V5.54064C157.883 2.48279 155.265 0.00390625 152.035 0.00390625Z" fill="black"/>
    <path d="M152.035 0.889784C153.338 0.889784 154.587 1.37978 155.508 2.25199C156.43 3.12419 156.947 4.30716 156.947 5.54064V38.7611C156.947 39.9945 156.43 41.1775 155.508 42.0497C154.587 42.9219 153.338 43.4119 152.035 43.4119H5.84751C4.54479 43.4119 3.29542 42.9219 2.37426 42.0497C1.4531 41.1775 0.935601 39.9945 0.935601 38.7611V5.54064C0.935601 4.30716 1.4531 3.12419 2.37426 2.25199C3.29542 1.37978 4.54479 0.889784 5.84751 0.889784H152.035ZM152.035 0.00390625H5.84751C4.29665 0.00390625 2.80931 0.587239 1.71269 1.62558C0.616075 2.66392 0 4.07221 0 5.54064V38.7611C0 40.2295 0.616075 41.6378 1.71269 42.6761C2.80931 43.7145 4.29665 44.2978 5.84751 44.2978H152.035C153.586 44.2978 155.073 43.7145 156.17 42.6761C157.267 41.6378 157.883 40.2295 157.883 38.7611V5.54064C157.883 4.07221 157.267 2.66392 156.17 1.62558C155.073 0.587239 153.586 0.00390625 152.035 0.00390625Z" fill="#A6A6A6"/>
    <path d="M79.6899 24.0891C78.7079 24.0935 77.7492 24.3732 76.9349 24.893C76.1206 25.4128 75.4872 26.1493 75.1146 27.0096C74.742 27.8699 74.6469 28.8155 74.8413 29.7269C75.0357 30.6384 75.5109 31.4748 76.207 32.1308C76.903 32.7868 77.7887 33.2328 78.7522 33.4126C79.7157 33.5924 80.7139 33.4979 81.6208 33.1411C82.5276 32.7842 83.3025 32.181 83.8476 31.4076C84.3928 30.6341 84.6837 29.7251 84.6837 28.7953C84.6932 28.1729 84.5704 27.555 84.3225 26.9785C84.0746 26.402 83.7068 25.8786 83.2408 25.4395C82.7749 25.0004 82.2204 24.6545 81.6104 24.4226C81.0003 24.1906 80.3472 24.0772 79.6899 24.0891ZM79.6899 31.6522C79.086 31.6922 78.4833 31.5592 77.9602 31.2706C77.4371 30.982 77.0178 30.551 76.7568 30.0338C76.4959 29.5165 76.4053 28.9369 76.4968 28.3702C76.5884 27.8036 76.8578 27.2761 77.2702 26.8564C77.6826 26.4367 78.2187 26.1441 78.809 26.0167C79.3993 25.8894 80.0164 25.9331 80.5801 26.1422C81.1438 26.3513 81.6281 26.7162 81.9699 27.1893C82.3117 27.6625 82.4953 28.222 82.4967 28.7953C82.5156 29.1585 82.4574 29.5216 82.3257 29.8632C82.1939 30.2048 81.9913 30.518 81.7297 30.7842C81.4681 31.0505 81.1529 31.2645 80.8025 31.4136C80.4522 31.5626 80.0739 31.6438 79.6899 31.6522ZM68.8019 24.0891C67.8193 24.0913 66.8595 24.3692 66.0437 24.8876C65.2278 25.4061 64.5926 26.1418 64.2182 27.002C63.8438 27.8621 63.747 28.808 63.9401 29.7202C64.1332 30.6324 64.6075 31.4699 65.3031 32.1269C65.9987 32.784 66.8843 33.2311 67.8482 33.4118C68.812 33.5925 69.8108 33.4987 70.7183 33.1421C71.6259 32.7856 72.4015 32.1824 72.9471 31.4087C73.4927 30.635 73.7839 29.7256 73.7839 28.7953C73.7935 28.1729 73.6707 27.555 73.4228 26.9785C73.1749 26.402 72.807 25.8786 72.3411 25.4395C71.8751 25.0004 71.3206 24.6545 70.7106 24.4226C70.1006 24.1906 69.4475 24.0772 68.7902 24.0891H68.8019ZM68.8019 31.6522C68.1976 31.6945 67.5939 31.5635 67.0694 31.2763C66.5449 30.9892 66.1238 30.5592 65.861 30.0422C65.5982 29.5253 65.5058 28.9455 65.5959 28.3782C65.686 27.8109 65.9544 27.2824 66.3662 26.8615C66.7779 26.4407 67.3139 26.1469 67.9045 26.0186C68.495 25.8902 69.1127 25.9331 69.6771 26.1418C70.2415 26.3504 70.7265 26.7151 71.0689 27.1884C71.4113 27.6617 71.5953 28.2216 71.597 28.7953C71.6158 29.1585 71.5576 29.5216 71.4259 29.8632C71.2942 30.2048 71.0915 30.518 70.8299 30.7842C70.5684 31.0505 70.2531 31.2645 69.9028 31.4136C69.5525 31.5626 69.1741 31.6438 68.7902 31.6522H68.8019ZM55.8321 25.5397V27.5329H60.8843C60.8051 28.4717 60.393 29.3576 59.7148 30.0466C59.2094 30.5341 58.6017 30.916 57.931 31.1677C57.2603 31.4194 56.5413 31.5354 55.8204 31.5082C54.3316 31.5082 52.9037 30.9483 51.851 29.9515C50.7982 28.9547 50.2068 27.6027 50.2068 26.193C50.2068 24.7834 50.7982 23.4314 51.851 22.4346C52.9037 21.4378 54.3316 20.8778 55.8204 20.8778C57.2446 20.8558 58.6199 21.3696 59.6447 22.3063L61.1299 20.9C60.4381 20.2367 59.6128 19.7117 58.7028 19.356C57.7927 19.0003 56.8166 18.8212 55.8321 18.8293C54.7924 18.791 53.7552 18.9518 52.7828 19.3021C51.8103 19.6524 50.9225 20.1849 50.1726 20.8679C49.4227 21.5508 48.8261 22.3701 48.4186 23.2765C48.0111 24.183 47.8011 25.158 47.8011 26.1432C47.8011 27.1284 48.0111 28.1034 48.4186 29.0099C48.8261 29.9164 49.4227 30.7356 50.1726 31.4185C50.9225 32.1015 51.8103 32.6341 52.7828 32.9844C53.7552 33.3347 54.7924 33.4955 55.8321 33.4572C56.8331 33.5 57.8322 33.3393 58.7622 32.986C59.6922 32.6326 60.5314 32.0947 61.2235 31.4086C62.4488 30.134 63.1029 28.4584 63.0479 26.7356C63.0517 26.3159 63.0125 25.8969 62.931 25.4843L55.8321 25.5397ZM108.822 27.09C108.517 26.2404 107.947 25.4985 107.187 24.9626C106.426 24.4267 105.512 24.1221 104.565 24.0891C103.926 24.0879 103.292 24.211 102.705 24.4507C102.117 24.6904 101.588 25.0416 101.15 25.4827C100.711 25.9238 100.373 26.4453 100.156 27.0151C99.9386 27.5849 99.8473 28.1907 99.8872 28.7953C99.873 29.4142 99.9907 30.0294 100.233 30.6043C100.476 31.1792 100.838 31.7019 101.299 32.1412C101.76 32.5805 102.309 32.9273 102.914 33.161C103.52 33.3947 104.169 33.5105 104.823 33.5015C105.641 33.5056 106.447 33.3176 107.17 32.9543C107.892 32.591 108.508 32.0637 108.963 31.4197L107.267 30.3123C107.014 30.7118 106.655 31.0423 106.227 31.2713C105.798 31.5004 105.315 31.6202 104.823 31.619C104.316 31.6373 103.815 31.5108 103.386 31.256C102.956 31.0013 102.617 30.63 102.413 30.1905L109.068 27.5883L108.822 27.09ZM102.039 28.6624C102.015 28.3199 102.064 27.9764 102.182 27.6519C102.301 27.3274 102.486 27.0286 102.728 26.7728C102.97 26.5171 103.263 26.3096 103.59 26.1625C103.918 26.0154 104.273 25.9317 104.635 25.9162C105.013 25.8927 105.389 25.9746 105.717 26.1518C106.046 26.3289 106.312 26.5936 106.483 26.9128L102.039 28.6624ZM96.636 33.2246H98.823V19.3829H96.636V33.2246ZM93.0573 25.1411H92.9755C92.6459 24.7922 92.2421 24.5131 91.7906 24.3223C91.3392 24.1315 90.8502 24.0331 90.3558 24.0337C89.0777 24.0924 87.8725 24.6145 86.9899 25.4916C86.1073 26.3688 85.615 27.5339 85.615 28.7455C85.615 29.957 86.1073 31.1221 86.9899 31.9993C87.8725 32.8764 89.0777 33.3985 90.3558 33.4572C90.8514 33.465 91.3428 33.37 91.7954 33.1787C92.248 32.9874 92.6508 32.7044 92.9755 32.3498H93.0456V33.0253C93.0456 34.8303 92.0282 35.7936 90.3909 35.7936C89.8456 35.7815 89.3164 35.6161 88.8707 35.3183C88.425 35.0206 88.083 34.604 87.8881 34.1216L85.9818 34.8745C86.3407 35.701 86.9521 36.4071 87.7377 36.9024C88.5232 37.3976 89.4471 37.6593 90.3909 37.654C92.9521 37.654 95.0689 36.2255 95.0689 32.7485V24.3659H93.0573V25.1411ZM90.5546 31.6522C89.8002 31.5893 89.0981 31.261 88.5866 30.7322C88.0752 30.2034 87.7915 29.5123 87.7915 28.7953C87.7915 28.0782 88.0752 27.3872 88.5866 26.8584C89.0981 26.3295 89.8002 26.0013 90.5546 25.9384C90.9286 25.9565 91.2951 26.0454 91.6323 26.1997C91.9695 26.3541 92.2706 26.5707 92.518 26.837C92.7654 27.1032 92.954 27.4136 93.0728 27.7499C93.1915 28.0863 93.238 28.4417 93.2094 28.7953C93.2413 29.1504 93.1968 29.5079 93.0786 29.8463C92.9604 30.1847 92.7709 30.4968 92.5217 30.7639C92.2724 31.0309 91.9685 31.2474 91.6284 31.4C91.2883 31.5527 90.919 31.6385 90.5429 31.6522H90.5546ZM119.067 19.3829H113.839V33.2246H116.026V27.9758H119.079C119.702 28.0182 120.328 27.9386 120.917 27.7419C121.507 27.5452 122.047 27.2356 122.504 26.8325C122.962 26.4294 123.326 25.9414 123.576 25.3989C123.825 24.8564 123.954 24.2711 123.954 23.6794C123.954 23.0877 123.825 22.5024 123.576 21.9599C123.326 21.4174 122.962 20.9294 122.504 20.5263C122.047 20.1232 121.507 19.8136 120.917 19.6169C120.328 19.4202 119.702 19.3405 119.079 19.3829H119.067ZM119.067 26.0269H116.015V21.3097H119.114C119.779 21.3097 120.417 21.5599 120.888 22.0054C121.358 22.4508 121.622 23.055 121.622 23.6849C121.622 24.3149 121.358 24.919 120.888 25.3645C120.417 25.8099 119.779 26.0602 119.114 26.0602L119.067 26.0269ZM132.551 24.0337C131.755 23.9887 130.963 24.1648 130.271 24.5406C129.579 24.9163 129.018 25.4753 128.657 26.1487L130.598 26.9128C130.79 26.5788 131.08 26.3046 131.433 26.1238C131.786 25.9429 132.186 25.8631 132.587 25.8941C132.864 25.8634 133.145 25.8853 133.414 25.9586C133.683 26.032 133.933 26.1552 134.151 26.3212C134.368 26.4871 134.549 26.6925 134.682 26.9252C134.815 27.158 134.898 27.4135 134.926 27.6769V27.8208C134.223 27.4687 133.44 27.2861 132.645 27.2893C130.552 27.2893 128.435 28.3966 128.435 30.4009C128.455 30.8283 128.566 31.2474 128.761 31.6334C128.956 32.0195 129.23 32.3647 129.568 32.6486C129.906 32.9325 130.301 33.1493 130.729 33.2863C131.157 33.4233 131.61 33.4776 132.06 33.4461C132.611 33.4835 133.162 33.3799 133.656 33.1461C134.15 32.9123 134.568 32.5569 134.867 32.1173H134.937V33.2246H137.042V27.8983C137.042 25.4733 135.101 24.067 132.61 24.067L132.551 24.0337ZM132.282 31.619C131.569 31.619 130.575 31.2757 130.575 30.4452C130.575 29.3379 131.815 28.9725 132.914 28.9725C133.609 28.9562 134.295 29.1168 134.902 29.4375C134.829 30.037 134.53 30.5913 134.059 30.9983C133.588 31.4053 132.978 31.6375 132.341 31.6522L132.282 31.619ZM144.714 24.3659L142.212 30.3677H142.141L139.545 24.3659H137.206L141.1 32.7595L138.878 37.4214H141.159L147.147 24.3659H144.714ZM125.055 33.2246H127.242V19.3829H125.055V33.2246Z" fill="white"/>
    <path d="M12.2095 8.35364C11.8284 8.78673 11.636 9.34117 11.6716 9.90393V34.3985C11.636 34.9613 11.8284 35.5157 12.2095 35.9488L12.2914 36.0263L26.7815 22.3173V21.9962L12.2914 8.27612L12.2095 8.35364Z" fill="url(#paint0_linear_search_provider)"/>
    <path d="M31.5763 26.8903L26.7814 22.317V21.9958L31.5763 17.4114L31.6815 17.4667L37.4237 20.5563C39.061 21.4311 39.061 22.8706 37.4237 23.7565L31.7049 26.835L31.5763 26.8903Z" fill="url(#paint1_linear_search_provider)"/>
    <path d="M31.7168 26.8239L26.7816 22.1509L12.2096 35.9484C12.5433 36.2261 12.969 36.3848 13.4132 36.3969C13.8574 36.4091 14.2921 36.2739 14.6421 36.0148L31.7285 26.8239" fill="url(#paint2_linear_search_provider)"/>
    <path d="M31.7169 17.4779L14.6305 8.28694C14.2804 8.02784 13.8457 7.89267 13.4015 7.9048C12.9574 7.91694 12.5316 8.0756 12.1979 8.35338L26.7816 22.1509L31.7169 17.4779Z" fill="url(#paint3_linear_search_provider)"/>
    <path opacity="0.2" d="M31.5765 26.7246L14.6304 35.8603C14.2928 36.0993 13.8825 36.2285 13.4609 36.2285C13.0394 36.2285 12.6291 36.0993 12.2914 35.8603L12.2096 35.9378L12.2914 36.0153C12.6283 36.2561 13.0389 36.3863 13.4609 36.3863C13.883 36.3863 14.2936 36.2561 14.6304 36.0153L31.7169 26.8243L31.5765 26.7246Z" fill="black"/>
    <path opacity="0.12" d="M12.2095 35.7936C11.8284 35.3605 11.636 34.8061 11.6716 34.2433V34.4094C11.636 34.9722 11.8284 35.5266 12.2095 35.9597L12.2914 35.8822L12.2095 35.7936ZM37.4239 23.5905L31.5764 26.7243L31.6817 26.824L37.4239 23.7455C37.7497 23.6006 38.0294 23.3768 38.2348 23.0969C38.4401 22.8169 38.5638 22.4906 38.5934 22.1509C38.5277 22.4595 38.388 22.7498 38.1853 22.9993C37.9826 23.2489 37.7221 23.4511 37.4239 23.5905Z" fill="black"/>
    <path opacity="0.25" d="M14.6301 8.44181L37.4236 20.7113C37.7218 20.8506 37.9823 21.0529 38.185 21.3024C38.3877 21.552 38.5274 21.8422 38.5931 22.1508C38.5635 21.8111 38.4398 21.4848 38.2345 21.2049C38.0291 20.9249 37.7494 20.7012 37.4236 20.5562L14.6301 8.28678C12.9928 7.41197 11.6596 8.14283 11.6596 9.91459V10.0807C11.6947 8.29786 13.0045 7.567 14.6301 8.44181Z" fill="white"/>
    <path d="M49.2476 15.8056H48.3822V13.5909H49.119C49.4549 13.2538 49.7086 12.851 49.8622 12.4109C50.0158 11.9709 50.0655 11.5042 50.0078 11.044V7.75514H54.6858V13.5798H55.4694V15.7945H54.6039V14.3993H49.2476V15.8056ZM50.8732 11.0772C50.9278 11.9704 50.6954 12.8584 50.2066 13.6241H53.7151V8.57459H50.8732V11.0772ZM62.463 13.5355C61.7793 14.1793 60.8543 14.5406 59.8901 14.5406C58.9259 14.5406 58.0009 14.1793 57.3172 13.5355C56.6526 12.8695 56.2824 11.9879 56.2824 11.0717C56.2824 10.1554 56.6526 9.27385 57.3172 8.60781C57.6542 8.28639 58.055 8.03129 58.4966 7.85721C58.9382 7.68313 59.4117 7.59351 59.8901 7.59351C60.3684 7.59351 60.842 7.68313 61.2836 7.85721C61.7251 8.03129 62.126 8.28639 62.463 8.60781C63.1301 9.27258 63.5022 10.1546 63.5022 11.0717C63.5022 11.9887 63.1301 12.8708 62.463 13.5355ZM57.9838 12.9819C58.4901 13.4593 59.1755 13.7273 59.8901 13.7273C60.6046 13.7273 61.29 13.4593 61.7964 12.9819C62.296 12.4603 62.5728 11.7814 62.5728 11.0772C62.5728 10.3731 62.296 9.6941 61.7964 9.17256C61.29 8.69515 60.6046 8.42712 59.8901 8.42712C59.1755 8.42712 58.4901 8.69515 57.9838 9.17256C57.4841 9.6941 57.2074 10.3731 57.2074 11.0772C57.2074 11.7814 57.4841 12.4603 57.9838 12.9819ZM68.0415 14.5432C67.5587 14.5523 67.0789 14.4688 66.6311 14.2977C66.1833 14.1266 65.7767 13.8714 65.4358 13.5476C65.0949 13.2238 64.8267 12.8379 64.6475 12.4134C64.4682 11.9888 64.3815 11.5343 64.3926 11.0772C64.3815 10.6201 64.4682 10.1656 64.6475 9.74102C64.8267 9.31646 65.0949 8.93065 65.4358 8.60682C65.7767 8.28299 66.1833 8.02784 66.6311 7.85673C67.0789 7.68563 67.5587 7.6021 68.0415 7.61119C68.5308 7.59972 69.0166 7.69339 69.4622 7.88519C69.9078 8.07698 70.3017 8.3619 70.6144 8.71854L69.9828 9.29437C69.7519 9.01669 69.454 8.79541 69.1143 8.649C68.7745 8.50258 68.4026 8.4353 68.0298 8.45278C67.6708 8.44394 67.3137 8.50416 66.98 8.62978C66.6463 8.7554 66.343 8.94382 66.0884 9.18363C65.5814 9.70829 65.3001 10.3937 65.3001 11.1049C65.3001 11.8161 65.5814 12.5015 66.0884 13.0262C66.343 13.266 66.6463 13.4544 66.98 13.58C67.3137 13.7056 67.6708 13.7658 68.0298 13.757C68.4414 13.7535 68.8471 13.6633 69.2173 13.4928C69.5875 13.3223 69.9129 13.0759 70.17 12.7715L70.8015 13.3694C70.4832 13.735 70.084 14.0299 69.632 14.2332C69.1328 14.4473 68.5894 14.5532 68.0415 14.5432ZM74.4737 14.3993H73.5732V8.57459H71.6085V7.75514H76.4268V8.57459H74.4737V14.3993ZM82.6251 7.75514L79.9704 13.3584C79.8641 13.6898 79.6518 13.9818 79.3627 14.1941C79.0736 14.4063 78.722 14.5283 78.3565 14.5432C78.1147 14.5403 77.8761 14.4914 77.6548 14.3993L77.8887 13.613C78.0308 13.6914 78.192 13.7334 78.3565 13.7349C78.5284 13.7471 78.7 13.7084 78.8477 13.6241C78.9886 13.5112 79.0972 13.3665 79.1634 13.2033L79.4207 12.6718L77.0817 7.76622H78.146L79.8768 11.5755L81.5609 7.75514H82.6251ZM83.6426 14.3993V7.75514H88.7182V14.3993H87.8177V8.57459H84.5431V14.3993H83.6426ZM90.3205 14.3993V7.75514H91.221V10.601H94.7295V7.75514H95.63V14.3993H94.7295V11.3983H91.221V14.3993H90.3205ZM102.986 13.5355C102.302 14.1793 101.377 14.5406 100.413 14.5406C99.449 14.5406 98.524 14.1793 97.8403 13.5355C97.1758 12.8695 96.8056 11.9879 96.8056 11.0717C96.8056 10.1554 97.1758 9.27385 97.8403 8.60781C98.1773 8.28639 98.5782 8.03129 99.0197 7.85721C99.4613 7.68313 99.9349 7.59351 100.413 7.59351C100.892 7.59351 101.365 7.68313 101.807 7.85721C102.248 8.03129 102.649 8.28639 102.986 8.60781C103.653 9.27258 104.025 10.1546 104.025 11.0717C104.025 11.9887 103.653 12.8708 102.986 13.5355ZM98.507 12.9819C99.0133 13.4593 99.6987 13.7273 100.413 13.7273C101.128 13.7273 101.813 13.4593 102.32 12.9819C102.819 12.4603 103.096 11.7814 103.096 11.0772C103.096 10.3731 102.819 9.6941 102.32 9.17256C101.813 8.69515 101.128 8.42712 100.413 8.42712C99.6987 8.42712 99.0133 8.69515 98.507 9.17256C98.0073 9.6941 97.7305 10.3731 97.7305 11.0772C97.7305 11.7814 98.0073 12.4603 98.507 12.9819ZM107.699 14.3993V7.75514H110.237C110.764 7.74572 111.275 7.92804 111.664 8.26453C111.859 8.42511 112.015 8.62439 112.12 8.84828C112.225 9.07216 112.277 9.31518 112.272 9.56013C112.277 9.85531 112.188 10.145 112.015 10.3906C111.843 10.6292 111.604 10.8172 111.325 10.9333C111.664 11.0396 111.961 11.2402 112.178 11.5091C112.403 11.7804 112.523 12.1166 112.518 12.4614C112.524 12.7167 112.47 12.9701 112.361 13.2036C112.252 13.4371 112.09 13.6449 111.886 13.8124C111.479 14.168 110.943 14.3622 110.389 14.355L107.699 14.3993ZM108.6 10.601H110.237C110.39 10.6071 110.542 10.5815 110.684 10.526C110.825 10.4706 110.952 10.3866 111.056 10.2799C111.159 10.191 111.243 10.0833 111.301 9.96313C111.36 9.84298 111.392 9.71289 111.397 9.58061C111.401 9.44833 111.377 9.31657 111.327 9.19319C111.276 9.06981 111.2 8.95735 111.102 8.8625C111.005 8.75782 110.884 8.67479 110.748 8.61929C110.613 8.5638 110.466 8.53719 110.319 8.54136H108.647L108.6 10.601ZM108.6 13.5798H110.412C110.571 13.5849 110.728 13.5567 110.874 13.4974C111.02 13.438 111.15 13.349 111.254 13.2365C111.461 13.034 111.578 12.7648 111.582 12.4835C111.582 12.1899 111.459 11.9082 111.239 11.7005C111.02 11.4929 110.723 11.3762 110.412 11.3762H108.635L108.6 13.5798Z" fill="white" stroke="white" stroke-width="0.2" stroke-miterlimit="10"/>
    <defs>
        <linearGradient id="paint0_linear_search_provider" x1="25.4951" y1="9.64924" x2="6.94141" y2="29.2442" gradientUnits="userSpaceOnUse">
            <stop stop-color="#00A0FF"/>
            <stop offset="0.01" stop-color="#00A1FF"/>
            <stop offset="0.26" stop-color="#00BEFF"/>
            <stop offset="0.51" stop-color="#00D2FF"/>
            <stop offset="0.76" stop-color="#00DFFF"/>
            <stop offset="1" stop-color="#00E3FF"/>
        </linearGradient>
        <linearGradient id="paint1_linear_search_provider" x1="39.5639" y1="22.1509" x2="11.2739" y2="22.1509" gradientUnits="userSpaceOnUse">
            <stop stop-color="#FFE000"/>
            <stop offset="0.41" stop-color="#FFBD00"/>
            <stop offset="0.78" stop-color="#FFA500"/>
            <stop offset="1" stop-color="#FF9C00"/>
        </linearGradient>
        <linearGradient id="paint2_linear_search_provider" x1="29.0387" y1="24.6978" x2="3.8725" y2="51.2649" gradientUnits="userSpaceOnUse">
            <stop stop-color="#FF3A44"/>
            <stop offset="1" stop-color="#C31162"/>
        </linearGradient>
        <linearGradient id="paint3_linear_search_provider" x1="8.53735" y1="0.203337" x2="19.7712" y2="12.0678" gradientUnits="userSpaceOnUse">
            <stop stop-color="#32A071"/>
            <stop offset="0.07" stop-color="#2DA771"/>
            <stop offset="0.48" stop-color="#15CF74"/>
            <stop offset="0.8" stop-color="#06E775"/>
            <stop offset="1" stop-color="#00F076"/>
        </linearGradient>
    </defs>
</svg>
