<svg width="158" height="46" viewBox="0 0 158 46" fill="none" xmlns="http://www.w3.org/2000/svg">
    <path d="M152.035 0.996094H5.84751C2.61802 0.996094 0 3.47497 0 6.53283V39.7532C0 42.8111 2.61802 45.29 5.84751 45.29H152.035C155.265 45.29 157.883 42.8111 157.883 39.7532V6.53283C157.883 3.47497 155.265 0.996094 152.035 0.996094Z" fill="black"/>
    <path d="M152.035 1.88197C153.338 1.88197 154.587 2.37197 155.508 3.24418C156.43 4.11638 156.947 5.29934 156.947 6.53283V39.7532C156.947 40.9867 156.43 42.1697 155.508 43.0419C154.587 43.9141 153.338 44.4041 152.035 44.4041H5.84751C4.54479 44.4041 3.29542 43.9141 2.37426 43.0419C1.4531 42.1697 0.935601 40.9867 0.935601 39.7532V6.53283C0.935601 5.29934 1.4531 4.11638 2.37426 3.24418C3.29542 2.37197 4.54479 1.88197 5.84751 1.88197H152.035ZM152.035 0.996094H5.84751C4.29665 0.996094 2.80931 1.57943 1.71269 2.61777C0.616075 3.65611 0 5.0644 0 6.53283V39.7532C0 41.2217 0.616075 42.63 1.71269 43.6683C2.80931 44.7066 4.29665 45.29 5.84751 45.29H152.035C153.586 45.29 155.073 44.7066 156.17 43.6683C157.267 42.63 157.883 41.2217 157.883 39.7532V6.53283C157.883 5.0644 157.267 3.65611 156.17 2.61777C155.073 1.57943 153.586 0.996094 152.035 0.996094Z" fill="#A6A6A6"/>
    <path d="M79.6899 25.0813C78.7079 25.0857 77.7492 25.3654 76.9349 25.8852C76.1206 26.4049 75.4872 27.1415 75.1146 28.0018C74.742 28.8621 74.6469 29.8077 74.8413 30.7191C75.0357 31.6305 75.5109 32.467 76.207 33.123C76.903 33.7789 77.7887 34.225 78.7522 34.4048C79.7157 34.5846 80.7139 34.4901 81.6207 34.1332C82.5276 33.7764 83.3025 33.1732 83.8476 32.3998C84.3927 31.6263 84.6837 30.7173 84.6837 29.7875C84.6932 29.1651 84.5704 28.5472 84.3225 27.9707C84.0746 27.3942 83.7068 26.8708 83.2408 26.4317C82.7749 25.9926 82.2204 25.6467 81.6103 25.4147C81.0003 25.1827 80.3472 25.0693 79.6899 25.0813ZM79.6899 32.6444C79.0859 32.6844 78.4833 32.5514 77.9602 32.2628C77.4371 31.9742 77.0178 31.5432 76.7568 31.026C76.4958 30.5087 76.4052 29.9291 76.4968 29.3624C76.5883 28.7958 76.8578 28.2683 77.2702 27.8486C77.6825 27.4288 78.2187 27.1363 78.809 27.0089C79.3993 26.8815 80.0164 26.9253 80.5801 27.1344C81.1438 27.3435 81.6281 27.7084 81.9699 28.1815C82.3117 28.6547 82.4952 29.2142 82.4967 29.7875C82.5155 30.1507 82.4574 30.5138 82.3256 30.8554C82.1939 31.197 81.9913 31.5102 81.7297 31.7764C81.4681 32.0427 81.1528 32.2567 80.8025 32.4057C80.4522 32.5548 80.0739 32.636 79.6899 32.6444ZM68.8018 25.0813C67.8193 25.0835 66.8595 25.3614 66.0436 25.8798C65.2278 26.3983 64.5926 27.134 64.2182 27.9942C63.8437 28.8543 63.747 29.8002 63.9401 30.7124C64.1332 31.6245 64.6075 32.4621 65.3031 33.1191C65.9987 33.7762 66.8843 34.2233 67.8481 34.404C68.812 34.5847 69.8108 34.4909 70.7183 34.1343C71.6258 33.7778 72.4014 33.1746 72.9471 32.4009C73.4927 31.6272 73.7839 30.7178 73.7839 29.7875C73.7934 29.1651 73.6706 28.5472 73.4227 27.9707C73.1749 27.3942 72.807 26.8708 72.341 26.4317C71.8751 25.9926 71.3206 25.6467 70.7106 25.4147C70.1005 25.1827 69.4474 25.0693 68.7901 25.0813H68.8018ZM68.8018 32.6444C68.1976 32.6866 67.5939 32.5557 67.0694 32.2685C66.5448 31.9814 66.1238 31.5513 65.861 31.0344C65.5981 30.5175 65.5058 29.9377 65.5959 29.3704C65.686 28.8031 65.9544 28.2746 66.3661 27.8537C66.7779 27.4329 67.3139 27.1391 67.9044 27.0107C68.495 26.8824 69.1126 26.9253 69.677 27.134C70.2414 27.3426 70.7264 27.7073 71.0689 28.1806C71.4113 28.6539 71.5953 29.2138 71.5969 29.7875C71.6158 30.1507 71.5576 30.5138 71.4259 30.8554C71.2941 31.197 71.0915 31.5102 70.8299 31.7764C70.5683 32.0427 70.2531 32.2567 69.9027 32.4057C69.5524 32.5548 69.1741 32.636 68.7901 32.6444H68.8018ZM55.8321 26.5319V28.5251H60.8843C60.8051 29.4639 60.3929 30.3498 59.7148 31.0388C59.2093 31.5262 58.6017 31.9081 57.931 32.1599C57.2603 32.4116 56.5413 32.5276 55.8204 32.5004C54.3315 32.5004 52.9037 31.9404 51.8509 30.9436C50.7982 29.9469 50.2068 28.5949 50.2068 27.1852C50.2068 25.7756 50.7982 24.4236 51.8509 23.4268C52.9037 22.43 54.3315 21.87 55.8204 21.87C57.2446 21.848 58.6199 22.3617 59.6446 23.2985L61.1299 21.8922C60.4381 21.2289 59.6128 20.7039 58.7027 20.3482C57.7927 19.9925 56.8165 19.8134 55.8321 19.8215C54.7924 19.7831 53.7552 19.944 52.7827 20.2943C51.8102 20.6446 50.9225 21.1771 50.1726 21.8601C49.4227 22.543 48.8261 23.3623 48.4186 24.2687C48.0111 25.1752 47.801 26.1502 47.801 27.1354C47.801 28.1206 48.0111 29.0956 48.4186 30.0021C48.8261 30.9085 49.4227 31.7278 50.1726 32.4107C50.9225 33.0937 51.8102 33.6262 52.7827 33.9765C53.7552 34.3268 54.7924 34.4877 55.8321 34.4493C56.8331 34.4922 57.8322 34.3315 58.7622 33.9781C59.6921 33.6248 60.5314 33.0869 61.2235 32.4008C62.4487 31.1261 63.1029 29.4506 63.0479 27.7278C63.0517 27.3081 63.0125 26.8891 62.9309 26.4765L55.8321 26.5319ZM108.822 28.0822C108.517 27.2326 107.947 26.4907 107.187 25.9548C106.426 25.4189 105.512 25.1143 104.565 25.0813C103.925 25.0801 103.292 25.2032 102.705 25.4429C102.117 25.6826 101.588 26.0338 101.15 26.4749C100.711 26.916 100.373 27.4375 100.156 28.0073C99.9386 28.5771 99.8472 29.1829 99.8872 29.7875C99.873 30.4064 99.9907 31.0216 100.233 31.5965C100.476 32.1714 100.838 32.6941 101.299 33.1334C101.76 33.5726 102.309 33.9195 102.914 34.1532C103.52 34.3869 104.169 34.5027 104.822 34.4936C105.641 34.4978 106.447 34.3098 107.169 33.9465C107.892 33.5832 108.508 33.0559 108.963 32.4118L107.267 31.3045C107.014 31.704 106.655 32.0345 106.227 32.2635C105.798 32.4926 105.315 32.6123 104.822 32.6112C104.316 32.6295 103.815 32.503 103.386 32.2482C102.956 31.9935 102.617 31.6222 102.413 31.1827L109.068 28.5805L108.822 28.0822ZM102.039 29.6546C102.015 29.3121 102.064 28.9685 102.182 28.6441C102.301 28.3196 102.486 28.0208 102.728 27.765C102.97 27.5093 103.263 27.3018 103.59 27.1547C103.918 27.0076 104.273 26.9239 104.635 26.9084C105.013 26.8849 105.389 26.9668 105.717 27.1439C106.046 27.3211 106.312 27.5858 106.483 27.905L102.039 29.6546ZM96.636 34.2168H98.823V20.3751H96.636V34.2168ZM93.0573 26.1333H92.9754C92.6458 25.7843 92.2421 25.5053 91.7906 25.3145C91.3391 25.1236 90.8502 25.0253 90.3558 25.0259C89.0777 25.0846 87.8725 25.6066 86.9899 26.4838C86.1073 27.361 85.615 28.5261 85.615 29.7376C85.615 30.9492 86.1073 32.1143 86.9899 32.9914C87.8725 33.8686 89.0777 34.3907 90.3558 34.4493C90.8514 34.4572 91.3427 34.3622 91.7954 34.1709C92.248 33.9795 92.6508 33.6966 92.9754 33.342H93.0456V34.0175C93.0456 35.8224 92.0281 36.7858 90.3908 36.7858C89.8455 36.7737 89.3163 36.6083 88.8707 36.3105C88.425 36.0128 88.0829 35.5962 87.8881 35.1137L85.9818 35.8667C86.3407 36.6932 86.9521 37.3993 87.7376 37.8945C88.5232 38.3898 89.4471 38.6515 90.3908 38.6461C92.9521 38.6461 95.0689 37.2177 95.0689 33.7407V25.3581H93.0573V26.1333ZM90.5546 32.6444C89.8002 32.5814 89.0981 32.2532 88.5866 31.7244C88.0752 31.1956 87.7915 30.5045 87.7915 29.7875C87.7915 29.0704 88.0752 28.3794 88.5866 27.8505C89.0981 27.3217 89.8002 26.9935 90.5546 26.9305C90.9286 26.9487 91.295 27.0376 91.6322 27.1919C91.9694 27.3462 92.2706 27.5629 92.518 27.8291C92.7654 28.0954 92.954 28.4058 93.0727 28.7421C93.1915 29.0785 93.2379 29.4339 93.2093 29.7875C93.2413 30.1426 93.1968 30.5001 93.0786 30.8385C92.9604 31.1769 92.7709 31.489 92.5216 31.7561C92.2724 32.0231 91.9685 32.2395 91.6284 32.3922C91.2883 32.5449 90.919 32.6307 90.5429 32.6444H90.5546ZM119.067 20.3751H113.839V34.2168H116.026V28.968H119.079C119.702 29.0104 120.328 28.9308 120.917 28.7341C121.507 28.5374 122.047 28.2278 122.504 27.8247C122.962 27.4216 123.326 26.9336 123.576 26.3911C123.825 25.8486 123.954 25.2633 123.954 24.6716C123.954 24.0799 123.825 23.4946 123.576 22.9521C123.326 22.4096 122.962 21.9216 122.504 21.5185C122.047 21.1153 121.507 20.8058 120.917 20.6091C120.328 20.4124 119.702 20.3327 119.079 20.3751H119.067ZM119.067 27.0191H116.015V22.3019H119.114C119.779 22.3019 120.417 22.5521 120.888 22.9976C121.358 23.443 121.622 24.0472 121.622 24.6771C121.622 25.3071 121.358 25.9112 120.888 26.3567C120.417 26.8021 119.779 27.0523 119.114 27.0523L119.067 27.0191ZM132.551 25.0259C131.755 24.9809 130.962 25.157 130.271 25.5328C129.579 25.9085 129.018 26.4675 128.657 27.1409L130.598 27.905C130.79 27.571 131.08 27.2968 131.433 27.116C131.786 26.9351 132.186 26.8553 132.586 26.8863C132.864 26.8555 133.145 26.8775 133.414 26.9508C133.683 27.0242 133.933 27.1474 134.151 27.3134C134.368 27.4793 134.549 27.6847 134.682 27.9174C134.815 28.1502 134.898 28.4057 134.925 28.6691V28.813C134.223 28.4609 133.44 28.2783 132.645 28.2815C130.552 28.2815 128.435 29.3888 128.435 31.3931C128.455 31.8205 128.566 32.2396 128.761 32.6256C128.956 33.0117 129.23 33.3569 129.568 33.6408C129.906 33.9247 130.301 34.1415 130.729 34.2785C131.157 34.4155 131.61 34.4698 132.06 34.4383C132.611 34.4757 133.162 34.3721 133.656 34.1383C134.15 33.9045 134.568 33.5491 134.867 33.1095H134.937V34.2168H137.042V28.8905C137.042 26.4655 135.101 25.0591 132.61 25.0591L132.551 25.0259ZM132.282 32.6112C131.569 32.6112 130.575 32.2679 130.575 31.4374C130.575 30.3301 131.815 29.9646 132.914 29.9646C133.609 29.9484 134.295 30.109 134.902 30.4297C134.829 31.0292 134.529 31.5835 134.059 31.9905C133.588 32.3975 132.978 32.6297 132.341 32.6444L132.282 32.6112ZM144.714 25.3581L142.211 31.3599H142.141L139.545 25.3581H137.206L141.1 33.7517L138.878 38.4136H141.159L147.147 25.3581H144.714ZM125.055 34.2168H127.242V20.3751H125.055V34.2168Z" fill="white"/>
    <path d="M12.2095 9.34607C11.8283 9.77916 11.6359 10.3336 11.6715 10.8964V35.3909C11.6359 35.9537 11.8283 36.5081 12.2095 36.9412L12.2914 37.0187L26.7815 23.3097V22.9886L12.2914 9.26855L12.2095 9.34607Z" fill="url(#paint0_linear)"/>
    <path d="M31.5763 27.8823L26.7814 23.3089V22.9878L31.5763 18.4033L31.6815 18.4587L37.4237 21.5482C39.061 22.423 39.061 23.8626 37.4237 24.7485L31.7049 27.8269L31.5763 27.8823Z" fill="url(#paint1_linear)"/>
    <path d="M31.7169 27.8161L26.7816 23.1431L12.2096 36.9406C12.5433 37.2183 12.9691 37.377 13.4132 37.3891C13.8574 37.4013 14.2921 37.2661 14.6422 37.007L31.7286 27.8161" fill="url(#paint2_linear)"/>
    <path d="M31.7169 18.4703L14.6304 9.27937C14.2804 9.02027 13.8457 8.8851 13.4015 8.89724C12.9573 8.90937 12.5316 9.06803 12.1979 9.34581L26.7816 23.1433L31.7169 18.4703Z" fill="url(#paint3_linear)"/>
    <path opacity="0.2" d="M31.5765 27.7168L14.6305 36.8525C14.2928 37.0915 13.8825 37.2207 13.461 37.2207C13.0394 37.2207 12.6291 37.0915 12.2915 36.8525L12.2096 36.93L12.2915 37.0075C12.6283 37.2483 13.0389 37.3785 13.461 37.3785C13.883 37.3785 14.2936 37.2483 14.6305 37.0075L31.7169 27.8165L31.5765 27.7168Z" fill="black"/>
    <path opacity="0.12" d="M12.2095 36.7858C11.8283 36.3527 11.6359 35.7983 11.6715 35.2355V35.4016C11.6359 35.9644 11.8283 36.5188 12.2095 36.9519L12.2914 36.8744L12.2095 36.7858ZM37.4239 24.5826L31.5764 27.7165L31.6817 27.8162L37.4239 24.7377C37.7497 24.5927 38.0294 24.369 38.2347 24.089C38.4401 23.8091 38.5638 23.4828 38.5934 23.1431C38.5276 23.4517 38.388 23.7419 38.1853 23.9915C37.9825 24.2411 37.7221 24.4433 37.4239 24.5826Z" fill="black"/>
    <path opacity="0.25" d="M14.6301 9.434L37.4236 21.7035C37.7218 21.8428 37.9822 22.045 38.185 22.2946C38.3877 22.5442 38.5273 22.8344 38.5931 23.143C38.5635 22.8033 38.4398 22.477 38.2344 22.1971C38.0291 21.9171 37.7494 21.6934 37.4236 21.5484L14.6301 9.27897C12.9928 8.40416 11.6595 9.13502 11.6595 10.9068V11.0729C11.6946 9.29004 13.0045 8.55919 14.6301 9.434Z" fill="white"/>
    <path d="M49.2476 16.798H48.3822V14.5833H49.119C49.4549 14.2462 49.7087 13.8434 49.8622 13.4034C50.0158 12.9633 50.0655 12.4967 50.0078 12.0364V8.74758H54.6858V14.5723H55.4694V16.787H54.6039V15.3917H49.2476V16.798ZM50.8732 12.0696C50.9278 12.9629 50.6954 13.8508 50.2066 14.6166H53.7151V9.56702H50.8732V12.0696ZM62.463 14.528C61.7793 15.1717 60.8543 15.5331 59.8901 15.5331C58.9259 15.5331 58.0009 15.1717 57.3172 14.528C56.6526 13.8619 56.2824 12.9804 56.2824 12.0641C56.2824 11.1478 56.6526 10.2663 57.3172 9.60024C57.6542 9.27882 58.055 9.02372 58.4966 8.84964C58.9382 8.67556 59.4118 8.58594 59.8901 8.58594C60.3684 8.58594 60.842 8.67556 61.2836 8.84964C61.7252 9.02372 62.126 9.27882 62.463 9.60024C63.1302 10.265 63.5022 11.147 63.5022 12.0641C63.5022 12.9812 63.1302 13.8632 62.463 14.528ZM57.9838 13.9743C58.4901 14.4517 59.1755 14.7197 59.8901 14.7197C60.6046 14.7197 61.2901 14.4517 61.7964 13.9743C62.296 13.4527 62.5728 12.7738 62.5728 12.0696C62.5728 11.3655 62.296 10.6865 61.7964 10.165C61.2901 9.68758 60.6046 9.41955 59.8901 9.41955C59.1755 9.41955 58.4901 9.68758 57.9838 10.165C57.4841 10.6865 57.2074 11.3655 57.2074 12.0696C57.2074 12.7738 57.4841 13.4527 57.9838 13.9743ZM68.0415 15.5357C67.5587 15.5447 67.0789 15.4612 66.6311 15.2901C66.1833 15.119 65.7767 14.8638 65.4358 14.54C65.0949 14.2162 64.8267 13.8304 64.6475 13.4058C64.4682 12.9813 64.3815 12.5268 64.3927 12.0696C64.3815 11.6125 64.4682 11.158 64.6475 10.7335C64.8267 10.3089 65.0949 9.92309 65.4358 9.59926C65.7767 9.27543 66.1833 9.02027 66.6311 8.84917C67.0789 8.67806 67.5587 8.59453 68.0415 8.60362C68.5308 8.59215 69.0166 8.68582 69.4622 8.87762C69.9078 9.06941 70.3018 9.35433 70.6144 9.71097L69.9829 10.2868C69.7519 10.0091 69.454 9.78784 69.1143 9.64143C68.7745 9.49502 68.4026 9.42773 68.0298 9.44521C67.6708 9.43637 67.3137 9.49659 66.98 9.62221C66.6463 9.74783 66.343 9.93625 66.0884 10.1761C65.5814 10.7007 65.3001 11.3861 65.3001 12.0973C65.3001 12.8085 65.5814 13.4939 66.0884 14.0186C66.343 14.2584 66.6463 14.4468 66.98 14.5724C67.3137 14.6981 67.6708 14.7583 68.0298 14.7494C68.4414 14.746 68.8471 14.6557 69.2173 14.4852C69.5875 14.3148 69.9129 14.0683 70.17 13.7639L70.8015 14.3619C70.4832 14.7274 70.084 15.0223 69.632 15.2256C69.1328 15.4397 68.5894 15.5456 68.0415 15.5357ZM74.4737 15.3917H73.5732V9.56702H71.6085V8.74758H76.4268V9.56702H74.4737V15.3917ZM82.6252 8.74758L79.9704 14.3508C79.8641 14.6822 79.6518 14.9743 79.3627 15.1865C79.0736 15.3988 78.722 15.5208 78.3565 15.5357C78.1147 15.5327 77.8761 15.4838 77.6548 15.3917L77.8887 14.6055C78.0308 14.6838 78.192 14.7258 78.3565 14.7273C78.5284 14.7395 78.7 14.7008 78.8477 14.6166C78.9886 14.5036 79.0972 14.3589 79.1634 14.1958L79.4207 13.6642L77.0817 8.75865H78.146L79.8768 12.5679L81.5609 8.74758H82.6252ZM83.6426 15.3917V8.74758H88.7182V15.3917H87.8177V9.56702H84.5431V15.3917H83.6426ZM90.3205 15.3917V8.74758H91.221V11.5935H94.7295V8.74758H95.63V15.3917H94.7295V12.3908H91.221V15.3917H90.3205ZM102.986 14.528C102.302 15.1717 101.377 15.5331 100.413 15.5331C99.449 15.5331 98.524 15.1717 97.8403 14.528C97.1758 13.8619 96.8056 12.9804 96.8056 12.0641C96.8056 11.1478 97.1758 10.2663 97.8403 9.60024C98.1773 9.27882 98.5782 9.02372 99.0197 8.84964C99.4613 8.67556 99.9349 8.58594 100.413 8.58594C100.892 8.58594 101.365 8.67556 101.807 8.84964C102.248 9.02372 102.649 9.27882 102.986 9.60024C103.653 10.265 104.025 11.147 104.025 12.0641C104.025 12.9812 103.653 13.8632 102.986 14.528ZM98.507 13.9743C99.0133 14.4517 99.6987 14.7197 100.413 14.7197C101.128 14.7197 101.813 14.4517 102.32 13.9743C102.819 13.4527 103.096 12.7738 103.096 12.0696C103.096 11.3655 102.819 10.6865 102.32 10.165C101.813 9.68758 101.128 9.41955 100.413 9.41955C99.6987 9.41955 99.0133 9.68758 98.507 10.165C98.0073 10.6865 97.7305 11.3655 97.7305 12.0696C97.7305 12.7738 98.0073 13.4527 98.507 13.9743ZM107.699 15.3917V8.74758H110.237C110.764 8.73815 111.275 8.92047 111.664 9.25696C111.859 9.41754 112.015 9.61682 112.12 9.84071C112.225 10.0646 112.277 10.3076 112.272 10.5526C112.277 10.8477 112.188 11.1375 112.015 11.3831C111.843 11.6216 111.604 11.8097 111.325 11.9257C111.664 12.032 111.961 12.2327 112.178 12.5015C112.403 12.7728 112.523 13.109 112.518 13.4538C112.524 13.7091 112.47 13.9625 112.361 14.196C112.252 14.4295 112.09 14.6373 111.886 14.8048C111.479 15.1605 110.943 15.3547 110.389 15.3474L107.699 15.3917ZM108.6 11.5935H110.237C110.39 11.5995 110.542 11.5739 110.684 11.5185C110.825 11.463 110.952 11.379 111.056 11.2723C111.159 11.1834 111.243 11.0757 111.301 10.9556C111.36 10.8354 111.392 10.7053 111.397 10.573C111.401 10.4408 111.377 10.309 111.327 10.1856C111.276 10.0622 111.2 9.94978 111.102 9.85493C111.005 9.75026 110.884 9.66722 110.748 9.61173C110.613 9.55623 110.466 9.52962 110.319 9.5338H108.647L108.6 11.5935ZM108.6 14.5723H110.412C110.571 14.5773 110.728 14.5491 110.874 14.4898C111.02 14.4304 111.15 14.3414 111.255 14.229C111.461 14.0265 111.578 13.7572 111.582 13.476C111.582 13.1823 111.459 12.9006 111.239 12.693C111.02 12.4853 110.723 12.3686 110.412 12.3686H108.635L108.6 14.5723Z" fill="white" stroke="white" stroke-width="0.2" stroke-miterlimit="10"/>
    <defs>
        <linearGradient id="paint0_linear" x1="25.4951" y1="10.6417" x2="6.9414" y2="30.2367" gradientUnits="userSpaceOnUse">
            <stop stop-color="#00A0FF"/>
            <stop offset="0.01" stop-color="#00A1FF"/>
            <stop offset="0.26" stop-color="#00BEFF"/>
            <stop offset="0.51" stop-color="#00D2FF"/>
            <stop offset="0.76" stop-color="#00DFFF"/>
            <stop offset="1" stop-color="#00E3FF"/>
        </linearGradient>
        <linearGradient id="paint1_linear" x1="39.5639" y1="23.1428" x2="11.2739" y2="23.1428" gradientUnits="userSpaceOnUse">
            <stop stop-color="#FFE000"/>
            <stop offset="0.41" stop-color="#FFBD00"/>
            <stop offset="0.78" stop-color="#FFA500"/>
            <stop offset="1" stop-color="#FF9C00"/>
        </linearGradient>
        <linearGradient id="paint2_linear" x1="29.0387" y1="25.69" x2="3.87252" y2="52.2571" gradientUnits="userSpaceOnUse">
            <stop stop-color="#FF3A44"/>
            <stop offset="1" stop-color="#C31162"/>
        </linearGradient>
        <linearGradient id="paint3_linear" x1="8.53732" y1="1.19577" x2="19.7712" y2="13.0602" gradientUnits="userSpaceOnUse">
            <stop stop-color="#32A071"/>
            <stop offset="0.07" stop-color="#2DA771"/>
            <stop offset="0.48" stop-color="#15CF74"/>
            <stop offset="0.8" stop-color="#06E775"/>
            <stop offset="1" stop-color="#00F076"/>
        </linearGradient>
    </defs>
</svg>
