<svg width="28" height="29" viewBox="0 0 28 29" fill="none" xmlns="http://www.w3.org/2000/svg">
    <path d="M1.18627 0.880911C0.813851 1.30405 0.625875 1.84575 0.660664 2.39558V26.3273C0.625875 26.8771 0.813851 27.4188 1.18627 27.8419L1.26626 27.9177L15.4234 14.5237V14.21L1.26626 0.805176L1.18627 0.880911Z" fill="url(#paint0_linear)"/>
    <path d="M20.108 18.9921L15.4232 14.5238V14.2101L20.108 9.73096L20.2108 9.78505L25.8211 12.8036C27.4207 13.6583 27.4207 15.0648 25.8211 15.9303L20.2337 18.938L20.108 18.9921Z" fill="url(#paint1_linear)"/>
    <path d="M20.245 18.9264L15.4231 14.3608L1.18597 27.8413C1.51204 28.1127 1.92798 28.2677 2.36194 28.2795C2.7959 28.2914 3.22059 28.1593 3.56264 27.9062L20.2564 18.9264" fill="url(#paint2_linear)"/>
    <path d="M20.2451 9.79719L3.55129 0.817448C3.20925 0.564299 2.78455 0.43224 2.3506 0.444093C1.91664 0.455946 1.50069 0.610966 1.17462 0.882363L15.4232 14.3628L20.2451 9.79719Z" fill="url(#paint3_linear)"/>
    <path opacity="0.2" d="M20.1079 18.8301L3.55121 27.7559C3.22132 27.9894 2.82048 28.1156 2.40858 28.1156C1.99669 28.1156 1.59585 27.9894 1.26596 27.7559L1.18597 27.8316L1.26596 27.9073C1.5951 28.1425 1.99622 28.2698 2.40858 28.2698C2.82094 28.2698 3.22207 28.1425 3.55121 27.9073L20.245 18.9275L20.1079 18.8301Z" fill="black"/>
    <path opacity="0.12" d="M1.18627 27.6901C0.813851 27.2669 0.625875 26.7252 0.660664 26.1754V26.3377C0.625875 26.8875 0.813851 27.4292 1.18627 27.8524L1.26626 27.7766L1.18627 27.6901ZM25.8213 15.7673L20.1081 18.8292L20.211 18.9265L25.8213 15.9188C26.1396 15.7772 26.4128 15.5586 26.6135 15.2851C26.8141 15.0115 26.9349 14.6927 26.9639 14.3608C26.8996 14.6624 26.7632 14.946 26.5651 15.1898C26.3671 15.4336 26.1126 15.6312 25.8213 15.7673Z" fill="black"/>
    <path opacity="0.25" d="M3.55127 0.967351L25.821 12.9549C26.1123 13.091 26.3668 13.2886 26.5649 13.5324C26.763 13.7762 26.8994 14.0598 26.9636 14.3613C26.9347 14.0295 26.8138 13.7107 26.6132 13.4371C26.4126 13.1636 26.1393 12.945 25.821 12.8034L3.55127 0.815883C1.95159 -0.0388232 0.649002 0.675236 0.649002 2.40629V2.56857C0.683281 0.826703 1.96302 0.112645 3.55127 0.967351Z" fill="white"/>
    <defs>
        <linearGradient id="paint0_linear" x1="14.1665" y1="2.14674" x2="-3.96079" y2="21.2915" gradientUnits="userSpaceOnUse">
            <stop stop-color="#00A0FF"/>
            <stop offset="0.01" stop-color="#00A1FF"/>
            <stop offset="0.26" stop-color="#00BEFF"/>
            <stop offset="0.51" stop-color="#00D2FF"/>
            <stop offset="0.76" stop-color="#00DFFF"/>
            <stop offset="1" stop-color="#00E3FF"/>
        </linearGradient>
        <linearGradient id="paint1_linear" x1="27.912" y1="14.3615" x2="0.272124" y2="14.3615" gradientUnits="userSpaceOnUse">
            <stop stop-color="#FFE000"/>
            <stop offset="0.41" stop-color="#FFBD00"/>
            <stop offset="0.78" stop-color="#FFA500"/>
            <stop offset="1" stop-color="#FF9C00"/>
        </linearGradient>
        <linearGradient id="paint2_linear" x1="17.6284" y1="16.8492" x2="-6.95952" y2="42.8058" gradientUnits="userSpaceOnUse">
            <stop stop-color="#FF3A44"/>
            <stop offset="1" stop-color="#C31162"/>
        </linearGradient>
        <linearGradient id="paint3_linear" x1="-2.40181" y1="-7.0804" x2="8.57388" y2="4.51144" gradientUnits="userSpaceOnUse">
            <stop stop-color="#32A071"/>
            <stop offset="0.07" stop-color="#2DA771"/>
            <stop offset="0.48" stop-color="#15CF74"/>
            <stop offset="0.8" stop-color="#06E775"/>
            <stop offset="1" stop-color="#00F076"/>
        </linearGradient>
    </defs>
</svg>
