<svg width="160" height="46" viewBox="0 0 160 46" fill="none" xmlns="http://www.w3.org/2000/svg">
    <path d="M147.302 0.996238H13.2474C12.7588 0.996238 12.276 0.996238 11.7886 0.998452C11.3807 1.00067 10.976 1.0071 10.5641 1.01252C9.66929 1.02127 8.77661 1.08668 7.89379 1.20819C7.01221 1.33235 6.15824 1.56643 5.36077 1.9025C4.56428 2.24141 3.83651 2.6818 3.20385 3.20768C2.56787 3.73208 2.03773 4.33822 1.63381 5.00278C1.22879 5.66603 0.94794 6.37675 0.800973 7.11041C0.652608 7.84315 0.572772 8.58433 0.56218 9.32731C0.549814 9.66683 0.548508 10.0075 0.541992 10.347V35.9424C0.548508 36.2863 0.549814 36.6194 0.56218 36.9633C0.572775 37.7062 0.652611 38.4474 0.800973 39.1801C0.947534 39.9142 1.2284 40.6253 1.63381 41.2888C2.03754 41.9512 2.56776 42.5549 3.20385 43.0764C3.83411 43.6046 4.56236 44.0453 5.36077 44.3816C6.15823 44.7186 7.01211 44.9541 7.89379 45.0801C8.77676 45.2007 9.66935 45.2661 10.5641 45.2759C10.976 45.2834 11.3807 45.2878 11.7886 45.2878C12.276 45.29 12.7588 45.29 13.2474 45.29H147.302C147.781 45.29 148.267 45.29 148.746 45.2878C149.152 45.2878 149.569 45.2834 149.975 45.2759C150.868 45.2666 151.759 45.2012 152.64 45.0801C153.524 44.9532 154.381 44.7178 155.183 44.3816C155.98 44.0451 156.708 43.6044 157.338 43.0764C157.972 42.5529 158.503 41.9496 158.912 41.2888C159.314 40.6248 159.593 39.9138 159.737 39.1801C159.886 38.4473 159.968 37.7063 159.984 36.9633C159.99 36.6194 159.99 36.2863 159.99 35.9424C160 35.5401 160 35.1401 160 34.7312V11.556C160 11.1505 160 10.7482 159.99 10.347C159.99 10.0075 159.99 9.66683 159.984 9.32727C159.968 8.58422 159.886 7.8432 159.737 7.11037C159.592 6.37713 159.314 5.66646 158.912 5.00274C158.09 3.67069 156.785 2.58641 155.183 1.9024C154.381 1.56715 153.524 1.33314 152.64 1.20809C151.759 1.08605 150.868 1.02061 149.975 1.01236C149.569 1.00696 149.152 1.00047 148.746 0.998308C148.267 0.996094 147.781 0.996094 147.302 0.996094V0.996238Z" fill="#A6A6A6"/>
    <path d="M11.795 44.3213C11.389 44.3213 10.9928 44.317 10.59 44.3095C9.75554 44.3004 8.92302 44.2401 8.09928 44.1288C7.33119 44.0189 6.58711 43.8144 5.8916 43.5221C5.20246 43.2323 4.57391 42.8522 4.03003 42.3964C3.47828 41.946 3.01891 41.4237 2.67015 40.85C2.31754 40.2726 2.07352 39.6537 1.94658 39.0149C1.80949 38.3285 1.73532 37.6344 1.72471 36.9386C1.71626 36.7051 1.7052 35.9275 1.7052 35.9275V10.3472C1.7052 10.3472 1.71698 9.58158 1.72478 9.35664C1.73494 8.66199 1.80868 7.96898 1.94535 7.28361C2.07253 6.64304 2.31674 6.02237 2.66954 5.44309C3.01702 4.86984 3.47383 4.34708 4.02226 3.89508C4.57008 3.43879 5.20064 3.05674 5.89095 2.76285C6.58486 2.47149 7.32753 2.26845 8.09407 2.16052C8.92052 2.0482 9.75592 1.98747 10.5933 1.97885L11.7957 1.96533H148.74L149.956 1.9794C150.786 1.98759 151.614 2.04777 152.433 2.15944C153.207 2.26872 153.958 2.47318 154.659 2.7661C156.042 3.35836 157.168 4.29537 157.878 5.4458C158.225 6.02107 158.465 6.63668 158.591 7.27172C158.729 7.96271 158.806 8.66116 158.822 9.36152C158.826 9.67512 158.826 10.012 158.826 10.3472C158.837 10.7625 158.837 11.1577 158.837 11.5562V34.7315C158.837 35.1338 158.837 35.5263 158.826 35.9221C158.826 36.2822 158.826 36.6121 158.821 36.9516C158.805 37.6394 158.729 38.3254 158.593 39.0041C158.469 39.6475 158.226 40.2712 157.874 40.8533C157.522 41.4207 157.066 41.9386 156.52 42.3878C155.976 42.846 155.346 43.2283 154.656 43.52C153.956 43.8146 153.206 44.0198 152.433 44.1288C151.609 44.2406 150.777 44.301 149.942 44.3095C149.552 44.317 149.143 44.3213 148.746 44.3213L147.302 44.3235L11.795 44.3213Z" fill="black"/>
    <path d="M35.5651 23.4767C35.5777 22.5525 35.8369 21.6462 36.3188 20.8423C36.8007 20.0384 37.4895 19.363 38.3211 18.8789C37.7928 18.1645 37.0958 17.5765 36.2856 17.1618C35.4753 16.747 34.5741 16.5169 33.6534 16.4896C31.6896 16.2944 29.7857 17.6023 28.7849 17.6023C27.7648 17.6023 26.224 16.509 24.5648 16.5413C23.4916 16.5741 22.4456 16.8696 21.5289 17.399C20.6121 17.9284 19.8558 18.6736 19.3337 19.562C17.0719 23.2699 18.759 28.7193 20.9256 31.7165C22.0096 33.1841 23.2765 34.8235 24.9342 34.7654C26.5564 34.7017 27.1622 33.786 29.1203 33.786C31.0603 33.786 31.6287 34.7654 33.32 34.7284C35.0607 34.7017 36.1574 33.2543 37.2033 31.7727C37.9822 30.727 38.5815 29.5712 38.9791 28.3482C37.9679 27.9432 37.1049 27.2653 36.4978 26.399C35.8906 25.5327 35.5663 24.5164 35.5651 23.4767Z" fill="white"/>
    <path d="M32.3706 14.5184C33.3197 13.4395 33.7872 12.0529 33.674 10.6528C32.224 10.797 30.8846 11.4532 29.9227 12.4907C29.4524 12.9975 29.0922 13.5871 28.8627 14.2259C28.6332 14.8646 28.5389 15.5399 28.5852 16.2131C29.3104 16.2202 30.0279 16.0713 30.6836 15.7778C31.3393 15.4842 31.9161 15.0536 32.3706 14.5184Z" fill="white"/>
    <path d="M56.0707 31.0499H50.535L49.2056 34.7666H46.8608L52.1042 21.0156H54.5403L59.7837 34.7666H57.399L56.0707 31.0499ZM51.1083 29.3348H55.4963L53.3332 23.3028H53.2726L51.1083 29.3348Z" fill="white"/>
    <path d="M71.1076 29.7548C71.1076 32.8702 69.3465 34.8718 66.6888 34.8718C66.0156 34.9052 65.3461 34.7584 64.7569 34.4481C64.1677 34.1379 63.6827 33.6769 63.3574 33.1178H63.3071V38.0835H61.1337V24.7415H63.2374V26.409H63.2774C63.6177 25.8526 64.1109 25.394 64.7046 25.0819C65.2982 24.7698 65.9702 24.6159 66.6489 24.6366C69.3362 24.6366 71.1076 26.648 71.1076 29.7548ZM68.8737 29.7548C68.8737 27.725 67.7658 26.3906 66.0755 26.3906C64.4149 26.3906 63.298 27.7531 63.298 29.7548C63.298 31.7748 64.4149 33.1276 66.0755 33.1276C67.7658 33.1276 68.8737 31.8029 68.8737 29.7548Z" fill="white"/>
    <path d="M82.7615 29.7548C82.7615 32.8702 81.0004 34.8718 78.3428 34.8718C77.6696 34.9052 77.0001 34.7583 76.4109 34.4481C75.8217 34.1379 75.3367 33.6769 75.0114 33.1178H74.9611V38.0835H72.7877V24.7415H74.8914V26.409H74.9314C75.2717 25.8526 75.7649 25.3939 76.3585 25.0819C76.9522 24.7698 77.6241 24.6159 78.3028 24.6366C80.9901 24.6366 82.7615 26.648 82.7615 29.7548ZM80.5276 29.7548C80.5276 27.725 79.4198 26.3906 77.7295 26.3906C76.0689 26.3906 74.952 27.7531 74.952 29.7548C74.952 31.7748 76.0689 33.1276 77.7295 33.1276C79.4198 33.1276 80.5276 31.8029 80.5276 29.7548H80.5276Z" fill="white"/>
    <path d="M90.4641 30.9351C90.6251 32.2987 92.0242 33.1941 93.936 33.1941C95.7679 33.1941 97.0859 32.2987 97.0859 31.0691C97.0859 30.0018 96.291 29.3627 94.4088 28.9247L92.5267 28.4954C89.8599 27.8855 88.6219 26.7046 88.6219 24.7884C88.6219 22.4158 90.8056 20.7861 93.9063 20.7861C96.9751 20.7861 99.0788 22.4158 99.1496 24.7884H96.9556C96.8243 23.4161 95.6263 22.5877 93.8754 22.5877C92.1246 22.5877 90.9266 23.4258 90.9266 24.6456C90.9266 25.6178 91.6918 26.1899 93.5637 26.6278L95.1637 26.9998C98.1434 27.667 99.3814 28.8004 99.3814 30.8117C99.3814 33.3844 97.2172 34.9956 93.7749 34.9956C90.5543 34.9956 88.3797 33.4222 88.2393 30.935L90.4641 30.9351Z" fill="white"/>
    <path d="M104.072 22.3682V24.7408H106.086V26.3704H104.072V31.8975C104.072 32.7561 104.475 33.1563 105.36 33.1563C105.599 33.1523 105.838 33.1364 106.075 33.1086V34.7286C105.677 34.799 105.273 34.8309 104.868 34.8238C102.725 34.8238 101.889 34.0614 101.889 32.117V26.3704H100.349V24.7408H101.888V22.3682H104.072Z" fill="white"/>
    <path d="M107.251 29.7548C107.251 26.6004 109.214 24.6182 112.273 24.6182C115.343 24.6182 117.296 26.6003 117.296 29.7548C117.296 32.9179 115.353 34.8914 112.273 34.8914C109.194 34.8914 107.251 32.9179 107.251 29.7548ZM115.082 29.7548C115.082 27.5909 114.034 26.3138 112.273 26.3138C110.512 26.3138 109.466 27.6006 109.466 29.7548C109.466 31.9273 110.512 33.1947 112.273 33.1947C114.034 33.1947 115.082 31.9273 115.082 29.7548H115.082Z" fill="white"/>
    <path d="M119.088 24.7414H121.161V26.4478H121.211C121.351 25.9149 121.681 25.4439 122.145 25.114C122.609 24.7842 123.178 24.6156 123.758 24.6365C124.008 24.6357 124.258 24.6614 124.503 24.7133V26.6381C124.186 26.5467 123.856 26.5047 123.526 26.5138C123.21 26.5017 122.895 26.5544 122.603 26.6683C122.311 26.7822 122.048 26.9547 121.833 27.1738C121.618 27.3929 121.456 27.6536 121.357 27.9378C121.258 28.222 121.225 28.5231 121.261 28.8204V34.7669H119.088L119.088 24.7414Z" fill="white"/>
    <path d="M134.523 31.8224C134.231 33.6424 132.359 34.8914 129.964 34.8914C126.884 34.8914 124.972 32.9373 124.972 29.8024C124.972 26.6577 126.894 24.6182 129.873 24.6182C132.802 24.6182 134.644 26.5236 134.644 29.5634V30.2684H127.166V30.3928C127.132 30.7618 127.18 31.1335 127.309 31.4832C127.438 31.833 127.644 32.1527 127.913 32.4213C128.183 32.6899 128.509 32.9012 128.872 33.041C129.234 33.1809 129.623 33.2462 130.014 33.2325C130.528 33.2781 131.043 33.1655 131.484 32.9114C131.925 32.6573 132.267 32.2754 132.46 31.8224L134.523 31.8224ZM127.176 28.8302H132.47C132.489 28.4984 132.436 28.1664 132.314 27.855C132.191 27.5436 132.002 27.2596 131.759 27.0206C131.515 26.7817 131.221 26.5931 130.897 26.4666C130.572 26.3401 130.224 26.2785 129.873 26.2857C129.519 26.2837 129.168 26.3481 128.841 26.4751C128.513 26.6022 128.215 26.7894 127.965 27.026C127.714 27.2625 127.515 27.5438 127.38 27.8534C127.245 28.1631 127.175 28.4951 127.176 28.8302V28.8302Z" fill="white"/>
    <path d="M49.5634 13.4571H50.4965C50.6572 13.4761 50.8202 13.4633 50.9753 13.4196C51.1305 13.3759 51.2744 13.3023 51.398 13.2033C51.5216 13.1044 51.6222 12.9822 51.6935 12.8446C51.7648 12.707 51.8052 12.5569 51.8122 12.4038C51.8122 11.7944 51.328 11.4007 50.5068 11.4007C50.3422 11.379 50.1747 11.3886 50.0142 11.4292C49.8536 11.4697 49.7033 11.5403 49.572 11.6368C49.4407 11.7332 49.3312 11.8536 49.2499 11.9909C49.1686 12.1281 49.1172 12.2793 49.0986 12.4357H48.0741C48.0917 12.1519 48.1709 11.8745 48.3066 11.6209C48.4424 11.3673 48.6318 11.1428 48.8631 10.9616C49.0944 10.7803 49.3626 10.646 49.6511 10.5671C49.9396 10.4883 50.2421 10.4665 50.5399 10.5031C51.9138 10.5031 52.8813 11.2315 52.8813 12.28C52.8845 12.6312 52.7604 12.9729 52.5296 13.2479C52.2989 13.523 51.9756 13.7148 51.6135 13.7913V13.8692C52.0427 13.8872 52.4469 14.0654 52.7378 14.3648C53.0286 14.6642 53.1824 15.0605 53.1656 15.467C53.1339 15.7593 53.0408 16.0426 52.8919 16.3003C52.743 16.558 52.5413 16.7851 52.2986 16.968C52.0558 17.151 51.777 17.2862 51.4783 17.3658C51.1797 17.4454 50.8672 17.4677 50.5593 17.4315C50.2508 17.4713 49.937 17.4519 49.6365 17.3745C49.3361 17.297 49.0552 17.163 48.8106 16.9806C48.566 16.7981 48.3627 16.5709 48.2128 16.3124C48.0629 16.054 47.9696 15.7696 47.9382 15.4762H48.9787C49.0415 16.1083 49.6548 16.5161 50.5593 16.5161C51.4639 16.5161 52.0544 16.0581 52.0544 15.4125C52.0544 14.7576 51.4981 14.3542 50.5262 14.3542H49.5634V13.4571Z" fill="white"/>
    <path d="M54.348 15.8619C54.348 14.9643 55.055 14.4469 56.3067 14.3733L57.7333 14.2955V13.8651C57.7333 13.3384 57.3666 13.0411 56.6551 13.0411C56.0749 13.0411 55.674 13.2427 55.5575 13.5953H54.5513C54.6575 12.7388 55.5096 12.1895 56.7042 12.1895C58.0245 12.1895 58.7692 12.8118 58.7692 13.8651V17.2721H57.7675V16.5713H57.6853C57.5184 16.8227 57.284 17.0276 57.0061 17.1651C56.7282 17.3027 56.4167 17.3679 56.1035 17.3542C55.8824 17.376 55.6589 17.3537 55.4475 17.2887C55.2361 17.2237 55.0415 17.1174 54.8761 16.9768C54.7107 16.8362 54.5782 16.6644 54.4873 16.4723C54.3963 16.2803 54.3489 16.0724 54.348 15.8619ZM57.7333 15.4358V15.0189L56.4472 15.0968C55.7219 15.1428 55.393 15.3763 55.393 15.8159C55.393 16.2647 55.8042 16.5259 56.3696 16.5259C56.5352 16.5418 56.7026 16.5259 56.8616 16.4793C57.0207 16.4327 57.1682 16.3563 57.2955 16.2546C57.4227 16.1529 57.527 16.028 57.6022 15.8873C57.6774 15.7467 57.722 15.5931 57.7333 15.4358Z" fill="white"/>
    <path d="M61.5274 13.114V17.272H60.488V12.2856H63.9555V13.1139L61.5274 13.114Z" fill="white"/>
    <path d="M70.2536 14.7764C70.2536 16.3606 69.4073 17.3539 68.0779 17.3539C67.7515 17.375 67.4256 17.3074 67.1385 17.159C66.8514 17.0106 66.615 16.7877 66.4572 16.5164H66.375V18.9295H65.3357V12.2854H66.3362V13.1094H66.4138C66.5745 12.8287 66.8139 12.5954 67.1057 12.4354C67.3976 12.2753 67.7304 12.1948 68.0676 12.2027C69.4073 12.2026 70.2536 13.1916 70.2536 14.7764ZM69.1846 14.7764C69.1846 13.7231 68.658 13.0867 67.7775 13.0867C66.9027 13.0867 66.3556 13.7366 66.3556 14.7807C66.3556 15.8199 66.9027 16.4704 67.7729 16.4704C68.658 16.4704 69.1846 15.834 69.1846 14.7764Z" fill="white"/>
    <path d="M71.6379 19.0579V18.2106C71.7504 18.2241 71.8637 18.2303 71.977 18.229C72.1985 18.2445 72.4182 18.1821 72.5939 18.0536C72.7697 17.9252 72.8892 17.7398 72.9295 17.5331L73.0072 17.2903L71.1011 12.2856H72.2329L73.5532 16.2462H73.6354L74.9511 12.2856H76.0532L74.09 17.478C73.64 18.6913 73.142 19.0806 72.0685 19.0806C71.9817 19.0806 71.735 19.0714 71.6379 19.0579Z" fill="white"/>
    <path d="M76.8629 15.8557H77.8977C77.9993 16.2953 78.4345 16.5245 79.0432 16.5245C79.7353 16.5245 80.1601 16.2357 80.1601 15.787C80.1601 15.3063 79.7787 15.0771 79.0432 15.0771H78.2551V14.3126H79.0295C79.6576 14.3126 79.9774 14.0839 79.9774 13.667C79.9774 13.301 79.6679 13.0214 79.0295 13.0214C78.4481 13.0214 78.0233 13.255 77.9559 13.6486H76.9543C77.0292 13.1963 77.2885 12.7899 77.6766 12.5168C78.0647 12.2437 78.5505 12.1257 79.0295 12.1882C80.2812 12.1882 80.9973 12.7241 80.9973 13.5664C81.0031 13.801 80.9237 14.0304 80.7724 14.2162C80.6211 14.402 80.4069 14.533 80.1658 14.5873V14.6651C80.4529 14.7002 80.7164 14.8338 80.9062 15.0406C81.0961 15.2474 81.1993 15.513 81.196 15.787C81.196 16.7349 80.344 17.362 79.0432 17.362C77.8931 17.362 76.9589 16.8629 76.8629 15.8557Z" fill="white"/>
    <path d="M82.6925 17.2719V12.2856H83.7227V15.7153H83.8049L86.2318 12.2857H87.2619V17.2719H86.2318V13.8239H86.1541L83.7227 17.272L82.6925 17.2719Z" fill="white"/>
    <path d="M92.937 13.1139H91.2787V17.272H90.2383V13.1139H88.58V12.2856H92.937V13.1139Z" fill="white"/>
    <path d="M98.536 15.9258C98.3944 16.3815 98.0882 16.7756 97.671 17.0393C97.2537 17.303 96.7518 17.4195 96.253 17.3684C95.9061 17.3771 95.5613 17.3142 95.2426 17.184C94.9239 17.0539 94.639 16.8596 94.4075 16.6147C94.1761 16.3698 94.0037 16.0802 93.9023 15.7659C93.8009 15.4516 93.773 15.1202 93.8204 14.7946C93.7742 14.4681 93.8027 14.136 93.9038 13.8207C94.005 13.5055 94.1764 13.2145 94.4067 12.9675C94.6369 12.7205 94.9205 12.5232 95.2383 12.389C95.556 12.2547 95.9005 12.1867 96.2485 12.1895C97.7138 12.1895 98.5989 13.1374 98.5989 14.7032V15.0466H94.8803V15.1018C94.8638 15.2848 94.888 15.4691 94.9512 15.6427C95.0144 15.8164 95.1153 15.9756 95.2474 16.1101C95.3795 16.2447 95.5398 16.3516 95.7181 16.4239C95.8964 16.4963 96.0888 16.5325 96.2827 16.5303C96.5312 16.5584 96.7828 16.516 97.0057 16.4083C97.2286 16.3007 97.4126 16.1327 97.5345 15.9258L98.536 15.9258ZM94.8802 14.3188H97.539C97.5521 14.1516 97.5282 13.9836 97.4687 13.8256C97.4091 13.6676 97.3154 13.5231 97.1934 13.4015C97.0715 13.2799 96.924 13.1837 96.7605 13.1192C96.5969 13.0548 96.421 13.0234 96.2439 13.0271C96.0641 13.0248 95.8856 13.0566 95.719 13.1207C95.5525 13.1848 95.4011 13.2799 95.274 13.4003C95.1469 13.5207 95.0466 13.6641 94.9789 13.8218C94.9113 13.9796 94.8778 14.1486 94.8803 14.3188H94.8802Z" fill="white"/>
    <path d="M102.942 12.2856H105.316C106.347 12.2856 106.951 12.7798 106.951 13.5536C106.952 13.7991 106.865 14.0377 106.703 14.2294C106.541 14.4211 106.314 14.5544 106.061 14.6068V14.6847C106.369 14.7031 106.657 14.8326 106.866 15.0466C107.076 15.2605 107.191 15.5425 107.187 15.8342C107.187 16.7042 106.496 17.272 105.34 17.272H102.942V12.2856ZM103.972 13.041V14.3322H105.002C105.63 14.3322 105.931 14.1035 105.931 13.6817C105.931 13.293 105.669 13.041 105.118 13.041L103.972 13.041ZM103.972 15.0557V16.5166H105.205C105.819 16.5166 106.148 16.2598 106.148 15.7883C106.148 15.2892 105.776 15.0557 105.074 15.0557L103.972 15.0557Z" fill="white"/>
</svg>
