<svg width="107" height="107" viewBox="0 0 107 107" fill="none" xmlns="http://www.w3.org/2000/svg">
    <g clip-path="url(#clip0)">
        <path d="M107 53.5C107 83.0476 83.0476 107 53.5 107C44.5422 107 36.1004 104.799 28.6847 100.91C26.1606 99.5843 23.754 98.0643 21.4854 96.3679C20.3017 95.483 19.1572 94.5507 18.0543 93.5728C6.98138 83.7725 0 69.4514 0 53.5C0 23.9524 23.9524 0 53.5 0C83.0476 0 107 23.9524 107 53.5Z" fill="#FFE152"/>
        <path d="M79.8573 93.954V100.067C74.5175 103.097 68.6048 105.233 62.3222 106.274C60.9744 106.497 59.6119 106.672 58.2339 106.792C57.3759 106.869 56.5114 106.923 55.6396 106.956C54.9302 106.986 54.2159 106.999 53.4999 106.999C51.9015 106.999 50.3227 106.93 48.761 106.792C44.8001 106.445 40.9633 105.665 37.2971 104.501C33.7378 103.372 30.3378 101.879 27.1426 100.067V93.954C27.1426 84.757 33.3884 77.0181 41.8719 74.7486C42.1821 74.6662 42.494 74.5895 42.8107 74.5217C43.654 74.338 44.5185 74.2115 45.3985 74.1396C45.9357 74.0956 46.4769 74.0743 47.0255 74.0743H59.9727C61.4201 74.0743 62.8307 74.227 64.1891 74.5217C64.2675 74.5372 64.3459 74.5544 64.4226 74.5723C64.652 74.6246 64.8814 74.6809 65.1059 74.7421C65.1124 74.7446 65.1173 74.7446 65.1239 74.747C67.3623 75.3454 69.4448 76.3258 71.2971 77.6116C76.4702 81.2019 79.8573 87.1824 79.8573 93.954Z" fill="#3D4159"/>
        <path d="M65.172 74.5217L65.1239 74.747L58.2339 106.792C56.6747 106.93 55.0942 106.999 53.4999 106.999C51.9015 106.999 50.3227 106.93 48.761 106.792L41.8719 74.7487L41.8237 74.5217H65.172Z" fill="#F2F0EC"/>
        <path d="M58.8364 81.2476L53.4991 89.8078L48.1619 81.2476" fill="#F74F4F"/>
        <path d="M58.4267 106.773C56.8038 106.923 55.1597 107 53.5 107C51.838 107 50.1939 106.923 48.5718 106.775L53.5 87.5808L58.4267 106.773Z" fill="#F74F4F"/>
        <path d="M53.4975 82.2134L44.5471 87.1874L41.8237 74.5226L47.3855 71.2466" fill="#D8D5D0"/>
        <path d="M53.4976 82.2134L62.4488 87.1874L65.1713 74.5226L59.6095 71.2466" fill="#D8D5D0"/>
        <path d="M71.2971 76.5202L65.5101 91.6136H68.3493L62.3223 106.274C60.9745 106.497 59.612 106.672 58.234 106.792C57.376 106.869 56.5115 106.923 55.6396 106.956L65.1721 73.4303L71.2971 76.5202Z" fill="#2A2F4F"/>
        <path d="M35.6335 76.5201L41.4198 91.6135H38.5814L44.6084 106.274C45.9554 106.497 47.3179 106.672 48.6959 106.792C49.5539 106.869 50.4192 106.923 51.2902 106.956L41.8239 73.6506L35.6335 76.5201Z" fill="#2A2F4F"/>
        <path d="M60.5923 66.4154V75.1209C60.5923 78.3079 58.491 81.0019 55.5963 81.8966C54.9342 82.1023 54.2281 82.2133 53.4974 82.2133C49.5798 82.2133 46.405 79.0386 46.405 75.1209V66.4154H60.5923Z" fill="#EAB599"/>
        <path d="M60.5925 74.5698V75.1209C60.5925 78.3079 58.4912 81.0018 55.5964 81.8965C52.9849 81.0941 51.0216 78.823 50.6592 76.045C51.1327 76.0735 51.6094 76.0882 52.0878 76.0882C53.4299 76.0882 54.7458 75.9821 56.0266 75.7715C57.6063 75.5176 59.132 75.1111 60.5925 74.5698Z" fill="#F6CAAE"/>
        <path d="M34.0407 52.1489C34.0407 55.4322 31.6415 58.1556 28.5002 58.6609C28.1573 58.7164 27.8038 58.745 27.4438 58.745C23.7996 58.745 20.8469 55.7931 20.8469 52.1489C20.8469 48.5047 23.7996 45.552 27.4438 45.552C27.8038 45.552 28.1573 45.5814 28.5002 45.6369C31.6415 46.1422 34.0407 48.8647 34.0407 52.1489Z" fill="#F6CAAE"/>
        <path d="M34.0407 52.1489C34.0407 55.4323 31.6414 58.1556 28.5001 58.6609C27.9295 56.5858 27.625 54.4021 27.625 52.1489C27.625 49.895 27.9295 47.7113 28.5001 45.637C31.6414 46.1423 34.0407 48.8648 34.0407 52.1489Z" fill="#EAB599"/>
        <path d="M29.8014 52.149C29.8014 53.4511 28.7459 54.5066 27.4438 54.5066C26.1417 54.5066 25.0862 53.4511 25.0862 52.149C25.0862 50.8469 26.1417 49.7914 27.4438 49.7914C28.7459 49.7914 29.8014 50.8469 29.8014 52.149Z" fill="#EAB599"/>
        <path d="M72.9568 52.1489C72.9568 55.4322 75.3552 58.1556 78.4965 58.6609C78.8402 58.7164 79.1928 58.745 79.5537 58.745C83.1978 58.745 86.1497 55.7931 86.1497 52.1489C86.1497 48.5047 83.1978 45.552 79.5537 45.552C79.1928 45.552 78.8402 45.5814 78.4965 45.6369C75.3552 46.1422 72.9568 48.8647 72.9568 52.1489Z" fill="#F6CAAE"/>
        <path d="M72.9568 52.1489C72.9568 55.4323 75.3552 58.1556 78.4965 58.6609C79.0671 56.5858 79.3724 54.4021 79.3724 52.1489C79.3724 49.895 79.0679 47.7113 78.4965 45.637C75.3552 46.1423 72.9568 48.8648 72.9568 52.1489Z" fill="#EAB599"/>
        <path d="M78.0426 39.2972V48.6435C78.0426 60.8568 69.12 70.9893 57.4373 72.8694C57.3981 72.8759 57.3565 72.8824 57.3173 72.889C56.0748 73.0873 54.7997 73.1861 53.4976 73.1861C39.9438 73.1861 28.9558 62.1973 28.9558 48.6435V39.2972C28.9558 36.4432 29.4424 33.7003 30.342 31.1525C33.6988 21.6004 42.8002 14.7529 53.4976 14.7529H53.5C54.7997 14.7529 56.0764 14.8533 57.3214 15.0501C69.0612 16.8844 78.0426 27.0422 78.0426 39.2972Z" fill="#EAB599"/>
        <path d="M81.9113 52.149C81.9113 53.4511 80.8557 54.5066 79.5536 54.5066C78.2516 54.5066 77.196 53.4511 77.196 52.149C77.196 50.8469 78.2516 49.7914 79.5536 49.7914C80.8557 49.7914 81.9113 50.8469 81.9113 52.149Z" fill="#EAB599"/>
        <path d="M78.0426 39.2973V48.6436C78.0426 60.8569 69.1199 70.9894 57.4372 72.8695C57.398 72.876 57.3564 72.8825 57.3172 72.8891C45.5774 71.0547 36.5984 60.8961 36.5984 48.6436V39.2973C36.5984 27.0423 45.5798 16.8845 57.3213 15.0502C69.0612 16.8845 78.0426 27.0423 78.0426 39.2973Z" fill="#F6CAAE"/>
        <path d="M48.2721 47.2141C48.2721 48.7521 47.0256 49.9979 45.4876 49.9979C43.9504 49.9979 42.7039 48.7521 42.7039 47.2141C42.7039 45.6761 43.9504 44.4296 45.4876 44.4296C47.0256 44.4296 48.2721 45.6761 48.2721 47.2141Z" fill="#3D4159"/>
        <path d="M64.2946 47.2141C64.2946 48.7521 63.0481 49.9979 61.5101 49.9979C59.9729 49.9979 58.7263 48.7521 58.7263 47.2141C58.7263 45.6761 59.9729 44.4296 61.5101 44.4296C63.0481 44.4296 64.2946 45.6761 64.2946 47.2141Z" fill="#3D4159"/>
        <path d="M47.704 46.7227C47.704 47.3815 47.1701 47.9154 46.5113 47.9154C45.8525 47.9154 45.3186 47.3815 45.3186 46.7227C45.3186 46.0639 45.8525 45.53 46.5113 45.53C47.1701 45.53 47.704 46.0639 47.704 46.7227Z" fill="white"/>
        <path d="M63.8635 46.7227C63.8635 47.3815 63.3288 47.9154 62.67 47.9154C62.0112 47.9154 61.4773 47.3815 61.4773 46.7227C61.4773 46.0639 62.0112 45.53 62.67 45.53C63.3288 45.53 63.8635 46.0639 63.8635 46.7227Z" fill="white"/>
        <path d="M56.2828 53.1326H50.7145C50.0508 53.1326 49.5137 52.5946 49.5137 51.9309C49.5137 51.2681 50.0508 50.7301 50.7145 50.7301H56.2828C56.9465 50.7301 57.4836 51.2681 57.4836 51.9309C57.4836 52.5946 56.9465 53.1326 56.2828 53.1326Z" fill="#EAB599"/>
        <path d="M53.4992 60.7312C51.4436 60.7312 49.3889 60.216 47.5154 59.1866C46.9864 58.896 46.7937 58.2323 47.0843 57.7033C47.375 57.1751 48.0387 56.9825 48.5668 57.2723C51.6551 58.9703 55.3425 58.9703 58.4307 57.2723C58.9589 56.9825 59.6226 57.1751 59.9132 57.7033C60.2038 58.2323 60.0112 58.896 59.4822 59.1866C57.6095 60.216 55.5539 60.7312 53.4992 60.7312Z" fill="#EAB599"/>
        <path d="M78.0426 30.8154V40.3895H73.4744V32.8922L40.5006 26.7647L33.5241 25.4675V40.3895H28.9558V30.8154C28.9558 19.9017 37.8017 11.0549 48.7138 11.0549H58.2846C58.5442 11.0549 58.8038 11.0598 59.0643 11.0729C69.6131 11.4786 78.0426 20.1613 78.0426 30.8154Z" fill="#2A2F4F"/>
        <path d="M78.0426 30.8154V40.3895H73.4743V32.8922L40.5005 26.7647C42.3177 18.0387 49.8885 11.4264 59.0642 11.0729C69.613 11.4786 78.0426 20.1612 78.0426 30.8154Z" fill="#3D4159"/>
        <path d="M47.7676 80.1758L45.5708 83.0322L39.5723 84.633L36.0302 85.5759L33.266 83.0281C33.1893 82.9554 33.1109 82.886 33.0366 82.8117C25.2454 75.5397 21.5637 69.8229 18.1702 59.719C18.1351 59.621 18.1024 59.5206 18.0697 59.4202L16.8926 55.8495L19.2208 53.0151L23.1597 48.2175L26.665 47.3987L27.2087 48.7808L28.7394 52.6747L30.9558 58.3132L28.0708 60.9467L26.123 62.7239C27.0161 65.5869 31.3574 72.3299 33.5934 74.3299L36.0171 73.2932L39.6074 71.7511L43.8238 76.1079L46.7349 79.1121L46.7373 79.1104L47.7676 80.1758Z" fill="#66BAED"/>
        <path d="M39.6082 71.7518L36.0171 73.2931L45.5716 83.0313L47.7676 80.1765L39.6082 71.7518Z" fill="#F2F0EC"/>
        <path d="M30.9567 58.3132L28.0677 60.9443L23.1582 48.215L26.666 47.3987L30.9567 58.3132Z" fill="#F2F0EC"/>
        <path d="M39.5723 84.633L36.0302 85.5759L33.266 83.0281C33.1893 82.9554 33.1109 82.886 33.0366 82.8117C25.2454 75.5397 21.5637 69.8229 18.1702 59.719C18.1351 59.621 18.1024 59.5206 18.0697 59.4202L16.8926 55.8495L19.2208 53.0151C19.2208 53.0151 19.9629 72.3584 39.5706 84.6306C39.5706 84.6306 39.5723 84.6306 39.5723 84.633Z" fill="#2BA1CF"/>
        <path d="M32.9788 71.9176L29.6587 75.2368C28.7738 76.1218 27.6146 76.565 26.4554 76.5634C25.7182 76.565 24.9802 76.3863 24.3133 76.0279C23.932 75.8222 23.5737 75.5601 23.2512 75.2377C21.4814 73.4678 21.4814 70.5992 23.2512 68.8293L26.5705 65.5093C28.3403 63.7402 31.2089 63.7402 32.9788 65.5093C33.3012 65.8325 33.5641 66.1901 33.769 66.5721C34.6915 68.2873 34.4253 70.4702 32.9788 71.9176Z" fill="#EAB599"/>
        <path d="M32.9787 71.9175L29.6586 75.2368C28.7737 76.1217 27.6145 76.565 26.4553 76.5633C25.7181 76.565 24.9801 76.3862 24.3132 76.0278C23.3915 74.3127 23.6568 72.129 25.1034 70.6824L28.4235 67.3623C29.87 65.9158 32.0538 65.6496 33.7689 66.5721C34.6914 68.2872 34.4252 70.4701 32.9787 71.9175Z" fill="#F6CAAE"/>
        <path d="M28.6847 100.91C26.1605 99.5843 23.7539 98.0642 21.4853 96.3679C20.3016 95.4829 19.1571 94.5507 18.0542 93.5727C17.8624 86.8885 18.9693 80.1757 21.3718 73.8171C22.3302 74.1796 23.2911 74.5421 24.2495 74.9045C26.3197 75.6858 28.39 76.4703 30.4618 77.2515C27.5932 84.8443 27.0014 93.0592 28.6847 100.91Z" fill="#2A2F4F"/>
        <path d="M28.6846 100.91C26.1605 99.5843 23.7539 98.0643 21.4853 96.3679C20.8869 89.1465 21.8085 81.8312 24.2494 74.9045C26.3197 75.6858 28.3899 76.4703 30.4618 77.2515C27.5932 84.8444 27.0013 93.0592 28.6846 100.91Z" fill="#3D4159"/>
        <path d="M61.6104 3.55273H101.43V33.4848H61.6104V3.55273Z" fill="#F2F0EC"/>
        <path d="M81.8395 31.6137L77.5635 41.7691L96.2708 31.0798L81.8395 31.6137Z" fill="#F2F0EC"/>
        <path d="M76.8792 18.5188C76.8792 20.0682 75.6229 21.3246 74.0734 21.3246C72.5232 21.3246 71.2668 20.0682 71.2668 18.5188C71.2668 16.9694 72.5232 15.713 74.0734 15.713C75.6229 15.713 76.8792 16.9694 76.8792 18.5188Z" fill="#3D4159"/>
        <path d="M84.3259 18.5188C84.3259 20.0682 83.0696 21.3246 81.5201 21.3246C79.9707 21.3246 78.7144 20.0682 78.7144 18.5188C78.7144 16.9694 79.9707 15.713 81.5201 15.713C83.0696 15.713 84.3259 16.9694 84.3259 18.5188Z" fill="#3D4159"/>
        <path d="M91.7735 18.5188C91.7735 20.0682 90.5172 21.3246 88.9669 21.3246C87.4175 21.3246 86.1611 20.0682 86.1611 18.5188C86.1611 16.9694 87.4175 15.713 88.9669 15.713C90.5172 15.713 91.7735 16.9694 91.7735 18.5188Z" fill="#3D4159"/>
    </g>
    <defs>
        <clipPath id="clip0">
            <rect width="107" height="107" fill="white"/>
        </clipPath>
    </defs>
</svg>
